<svg width="1116" height="833" viewBox="0 0 1116 833" fill="none" xmlns="http://www.w3.org/2000/svg">
<g clip-path="url(#clip0)">
<path d="M389.957 255.282H533.957" stroke="#3F3D56" stroke-width="2" stroke-miterlimit="10"/>
<path d="M218.407 414.207C226.196 393.83 227.324 375.328 220.927 372.883C214.53 370.438 203.03 384.975 195.241 405.353C187.453 425.73 186.324 444.232 192.722 446.677C199.119 449.122 210.619 434.585 218.407 414.207Z" fill="#2F2E41"/>
<path d="M1110.84 509.362C1126.5 625.904 1105.14 742.28 996.973 787.588C888.725 832.93 764.216 781.935 718.874 673.687C707.549 646.65 705.741 622.349 710.202 599.458C714.665 576.557 725.408 555.039 739.23 533.585C749.465 517.697 761.371 501.869 773.649 485.545C777.957 479.818 782.31 474.03 786.654 468.157C803.368 445.558 819.913 421.722 833.029 395.35C859.612 341.899 887.262 299.722 914.528 272.166C941.807 244.597 968.603 231.757 993.508 236.718C1018.42 241.68 1041.68 264.498 1061.76 308.839C1081.83 353.16 1098.68 418.867 1110.84 509.362Z" fill="#F2F2F2" stroke="black"/>
<path d="M916 817.564C1009.89 817.564 1086 807.209 1086 794.436C1086 781.664 1009.89 771.309 916 771.309C822.112 771.309 746 781.664 746 794.436C746 807.209 822.112 817.564 916 817.564Z" fill="#3F3D56"/>
<path d="M804.789 735.576L811.183 758.709L852.629 747.252L846.234 724.12L804.789 735.576Z" fill="#2F2E41"/>
<path d="M807.645 762.799C811.638 761.696 812.488 752.17 809.545 741.524C806.602 730.878 800.98 723.142 796.988 724.245C792.995 725.349 792.145 734.874 795.087 745.521C798.03 756.167 803.653 763.903 807.645 762.799Z" fill="#2F2E41"/>
<path d="M935.606 656.016C938.536 634.399 935.41 616.128 928.623 615.209C921.837 614.289 913.96 631.068 911.03 652.685C908.1 674.303 911.226 692.573 918.013 693.493C924.799 694.413 932.676 677.634 935.606 656.016Z" fill="#2F2E41"/>
<path d="M915.585 807.299C959.215 807.299 994.585 771.93 994.585 728.299C994.585 684.669 959.215 649.299 915.585 649.299C871.954 649.299 836.585 684.669 836.585 728.299C836.585 771.93 871.954 807.299 915.585 807.299Z" fill="#2F2E41"/>
<path d="M804.789 721.576L811.183 744.709L852.629 733.252L846.234 710.12L804.789 721.576Z" fill="#2F2E41"/>
<path d="M807.645 748.799C811.638 747.696 812.488 738.17 809.545 727.524C806.602 716.878 800.98 709.142 796.988 710.245C792.995 711.349 792.145 720.874 795.087 731.521C798.03 742.167 803.653 749.903 807.645 748.799Z" fill="#2F2E41"/>
<path d="M936.329 710.043C951.241 710.043 963.329 697.955 963.329 683.043C963.329 668.131 951.241 656.043 936.329 656.043C921.417 656.043 909.329 668.131 909.329 683.043C909.329 697.955 921.417 710.043 936.329 710.043Z" fill="white"/>
<path d="M944.963 680.116C949.934 680.116 953.963 676.086 953.963 671.116C953.963 666.145 949.934 662.116 944.963 662.116C939.993 662.116 935.963 666.145 935.963 671.116C935.963 676.086 939.993 680.116 944.963 680.116Z" fill="#3F3D56"/>
<path d="M1006.81 782.588C1036.05 781.124 1058.44 753.78 1056.82 721.511C1055.21 689.243 1030.2 664.271 1000.97 665.734C971.732 667.197 967.144 690.146 968.759 722.414C970.374 754.683 977.58 784.051 1006.81 782.588Z" fill="#4183D7"/>
<path d="M883.298 694.874C878.54 695.258 873.825 693.736 870.189 690.644C866.553 687.551 864.294 683.142 863.909 678.384C863.524 673.627 865.045 668.911 868.136 665.274C871.227 661.638 875.636 659.378 880.393 658.991C890.302 658.189 893.005 666.056 893.807 675.964C894.609 685.873 893.206 694.072 883.298 694.874Z" fill="white"/>
<path d="M49.464 361.025H491.957L560.56 394.447L669.866 447.699L741.334 313.887H943.574" stroke="#3F3D56" stroke-width="2" stroke-miterlimit="10"/>
<path d="M222.811 388.711C230.37 388.711 236.497 382.584 236.497 375.025C236.497 367.467 230.37 361.34 222.811 361.34C215.253 361.34 209.126 367.467 209.126 375.025C209.126 382.584 215.253 388.711 222.811 388.711Z" fill="#4183D7"/>
<path d="M350.541 374.711C358.1 374.711 364.227 368.584 364.227 361.025C364.227 353.467 358.1 347.34 350.541 347.34C342.983 347.34 336.856 353.467 336.856 361.025C336.856 368.584 342.983 374.711 350.541 374.711Z" fill="#4183D7"/>
<path d="M560.384 408.164C567.942 408.164 574.069 402.037 574.069 394.478C574.069 386.92 567.942 380.793 560.384 380.793C552.825 380.793 546.698 386.92 546.698 394.478C546.698 402.037 552.825 408.164 560.384 408.164Z" fill="#4183D7"/>
<path d="M855.379 327.572C862.937 327.572 869.064 321.445 869.064 313.887C869.064 306.329 862.937 300.202 855.379 300.202C847.821 300.202 841.694 306.329 841.694 313.887C841.694 321.445 847.821 327.572 855.379 327.572Z" fill="#4183D7"/>
<path d="M712.443 380.793C720.001 380.793 726.128 374.666 726.128 367.108C726.128 359.55 720.001 353.422 712.443 353.422C704.885 353.422 698.758 359.55 698.758 367.108C698.758 374.666 704.885 380.793 712.443 380.793Z" fill="#4183D7"/>
<path d="M427.576 596.196C435.725 596.196 442.331 589.59 442.331 581.441C442.331 573.292 435.725 566.685 427.576 566.685C419.426 566.685 412.82 573.292 412.82 581.441C412.82 589.59 419.426 596.196 427.576 596.196Z" stroke="#3F3D56" stroke-width="2" stroke-miterlimit="10"/>
<path d="M170 832.564C263.888 832.564 340 822.209 340 809.436C340 796.664 263.888 786.309 170 786.309C76.1116 786.309 0 796.664 0 809.436C0 822.209 76.1116 832.564 170 832.564Z" fill="#3F3D56"/>
<path d="M239.305 696.436C239.305 739.791 204.159 774.936 160.805 774.936C117.45 774.936 82.3046 739.791 82.3046 696.436C82.3046 653.082 117.45 617.936 160.805 617.936C204.159 617.936 239.305 653.082 239.305 696.436Z" fill="#2F2E41" stroke="black"/>
<path d="M148.805 758.436H124.805V801.436H148.805V758.436Z" fill="#2F2E41"/>
<path d="M196.805 758.436H172.805V801.436H196.805V758.436Z" fill="#2F2E41"/>
<path d="M144.805 809.436C155.85 809.436 164.805 806.079 164.805 801.936C164.805 797.794 155.85 794.436 144.805 794.436C133.759 794.436 124.805 797.794 124.805 801.936C124.805 806.079 133.759 809.436 144.805 809.436Z" fill="#2F2E41"/>
<path d="M192.805 808.436C203.85 808.436 212.805 805.079 212.805 800.936C212.805 796.794 203.85 793.436 192.805 793.436C181.759 793.436 172.805 796.794 172.805 800.936C172.805 805.079 181.759 808.436 192.805 808.436Z" fill="#2F2E41"/>
<path d="M162.805 703.436C177.716 703.436 189.805 691.348 189.805 676.436C189.805 661.525 177.716 649.436 162.805 649.436C147.893 649.436 135.805 661.525 135.805 676.436C135.805 691.348 147.893 703.436 162.805 703.436Z" fill="white"/>
<path d="M162.805 685.436C167.775 685.436 171.805 681.407 171.805 676.436C171.805 671.466 167.775 667.436 162.805 667.436C157.834 667.436 153.805 671.466 153.805 676.436C153.805 681.407 157.834 685.436 162.805 685.436Z" fill="#3F3D56"/>
<path d="M84.1719 622.969C77.793 594.401 98.1838 565.535 129.716 558.494C161.248 551.453 191.981 568.904 198.36 597.471C204.739 626.039 183.841 636.575 152.309 643.616C120.777 650.657 90.5507 651.536 84.1719 622.969Z" fill="#4183D7"/>
<path d="M133.805 548.436C177.435 548.436 212.805 513.067 212.805 469.436C212.805 425.806 177.435 390.436 133.805 390.436C90.1741 390.436 54.8046 425.806 54.8046 469.436C54.8046 513.067 90.1741 548.436 133.805 548.436Z" fill="#2F2E41"/>
<path d="M121.805 531.436H97.8046V574.436H121.805V531.436Z" fill="#2F2E41"/>
<path d="M169.805 531.436H145.805V574.436H169.805V531.436Z" fill="#2F2E41"/>
<path d="M117.805 582.436C128.85 582.436 137.805 579.079 137.805 574.936C137.805 570.794 128.85 567.436 117.805 567.436C106.759 567.436 97.8046 570.794 97.8046 574.936C97.8046 579.079 106.759 582.436 117.805 582.436Z" fill="#2F2E41"/>
<path d="M165.805 581.436C176.85 581.436 185.805 578.079 185.805 573.936C185.805 569.794 176.85 566.436 165.805 566.436C154.759 566.436 145.805 569.794 145.805 573.936C145.805 578.079 154.759 581.436 165.805 581.436Z" fill="#2F2E41"/>
<path d="M135.805 476.436C150.716 476.436 162.805 464.348 162.805 449.436C162.805 434.525 150.716 422.436 135.805 422.436C120.893 422.436 108.805 434.525 108.805 449.436C108.805 464.348 120.893 476.436 135.805 476.436Z" fill="white"/>
<path d="M135.805 458.436C140.775 458.436 144.805 454.407 144.805 449.436C144.805 444.466 140.775 440.436 135.805 440.436C130.834 440.436 126.805 444.466 126.805 449.436C126.805 454.407 130.834 458.436 135.805 458.436Z" fill="#3F3D56"/>
<path d="M57.1719 395.969C50.793 367.401 71.1838 338.535 102.716 331.494C134.248 324.453 164.981 341.904 171.36 370.471C177.739 399.039 156.841 409.575 125.309 416.616C93.777 423.657 63.5507 424.536 57.1719 395.969Z" fill="#4183D7"/>
<path d="M80.5136 449.707C83.4483 443.519 69.8488 430.925 50.1381 421.576C30.4274 412.228 12.0696 409.665 9.13486 415.853C6.20009 422.041 19.7997 434.636 39.5103 443.984C59.221 453.333 77.5788 455.895 80.5136 449.707Z" fill="#2F2E41"/>
<path d="M95 497.936C95 505.668 114.909 520.936 137 520.936C159.091 520.936 179.805 499.168 179.805 491.436C179.805 483.704 159.091 492.936 137 492.936C114.909 492.936 95 490.204 95 497.936Z" fill="white"/>
<path d="M961.603 564.71H835.474V628.871H961.603V564.71Z" fill="#4183D7"/>
<path d="M951.732 575.129H825.603V639.29H951.732V575.129Z" stroke="#3F3D56" stroke-width="2" stroke-miterlimit="10"/>
<path d="M262.603 199H226.603V235H262.603V199Z" fill="#FF6584"/>
<path d="M253.603 187H217.603V223H253.603V187Z" stroke="#3F3D56" stroke-width="2" stroke-miterlimit="10"/>
<path d="M906.052 268.47C949.683 268.47 985.052 233.101 985.052 189.47C985.052 145.84 949.683 110.47 906.052 110.47C862.422 110.47 827.052 145.84 827.052 189.47C827.052 233.101 862.422 268.47 906.052 268.47Z" fill="#2F2E41"/>
<path d="M936.561 290.649L960.178 286.374L952.518 244.061L928.902 248.336L936.561 290.649Z" fill="#2F2E41"/>
<path d="M889.332 299.204L912.948 294.928L905.288 252.616L881.672 256.891L889.332 299.204Z" fill="#2F2E41"/>
<path d="M901.869 308.108C910.298 300.969 914.961 292.62 912.284 289.459C909.607 286.298 900.604 289.523 892.175 296.661C883.745 303.8 879.082 312.149 881.759 315.31C884.436 318.471 893.44 315.246 901.869 308.108Z" fill="#2F2E41"/>
<path d="M948.117 299.736C956.546 292.597 961.209 284.248 958.532 281.087C955.855 277.926 946.852 281.151 938.423 288.289C929.994 295.428 925.331 303.777 928.008 306.938C930.685 310.099 939.688 306.874 948.117 299.736Z" fill="#2F2E41"/>
<path d="M900.521 197.146C915.433 197.146 927.521 185.058 927.521 170.146C927.521 155.235 915.433 143.146 900.521 143.146C885.61 143.146 873.521 155.235 873.521 170.146C873.521 185.058 885.61 197.146 900.521 197.146Z" fill="white"/>
<path d="M889.424 169.468C894.395 169.468 898.424 165.439 898.424 160.468C898.424 155.498 894.395 151.468 889.424 151.468C884.454 151.468 880.424 155.498 880.424 160.468C880.424 165.439 884.454 169.468 889.424 169.468Z" fill="#3F3D56"/>
<path d="M968.372 103.527C969.56 74.2795 944.353 49.5072 912.071 48.1959C879.789 46.8845 852.656 69.5308 851.468 98.7778C850.28 128.025 872.721 134.67 905.003 135.981C937.285 137.293 967.184 132.773 968.372 103.527Z" fill="#4183D7"/>
<path d="M871.608 183.903C873.138 177.227 857.141 167.865 835.877 162.991C814.613 158.117 796.135 159.577 794.605 166.252C793.075 172.928 809.072 182.29 830.336 187.164C851.6 192.038 870.078 190.578 871.608 183.903Z" fill="#2F2E41"/>
<path d="M1026.68 209.691C1028.21 203.016 1012.21 193.653 990.951 188.779C969.687 183.905 951.209 185.366 949.679 192.041C948.149 198.716 964.146 208.079 985.41 212.953C1006.67 217.827 1025.15 216.367 1026.68 209.691Z" fill="#2F2E41"/>
<path d="M927.749 220.603C928.171 222.929 928.129 225.315 927.628 227.625C927.127 229.935 926.176 232.124 924.829 234.066C923.482 236.009 921.766 237.667 919.778 238.946C917.79 240.225 915.57 241.1 913.244 241.522C910.918 241.943 908.532 241.901 906.222 241.4C903.911 240.899 901.723 239.948 899.78 238.601C897.838 237.254 896.18 235.538 894.9 233.55C893.621 231.562 892.746 229.342 892.325 227.016C890.554 217.234 898.118 213.772 907.9 212.001C917.682 210.23 925.979 210.821 927.749 220.603Z" fill="white"/>
<path d="M712.603 99L803.603 169" stroke="#3F3D56" stroke-width="2" stroke-miterlimit="10"/>
<path d="M669.603 136C707.159 136 737.603 105.555 737.603 68C737.603 30.4446 707.159 0 669.603 0C632.048 0 601.603 30.4446 601.603 68C601.603 105.555 632.048 136 669.603 136Z" fill="#4183D7"/>
<path d="M905.954 674.787C908.884 653.17 905.758 634.9 898.972 633.98C892.185 633.06 884.309 649.839 881.379 671.456C878.448 693.074 881.575 711.344 888.361 712.264C895.148 713.184 903.024 696.405 905.954 674.787Z" fill="#2F2E41"/>
<path d="M68.8114 799.711C76.3696 799.711 82.4968 793.584 82.4968 786.025C82.4968 778.467 76.3696 772.34 68.8114 772.34C61.2532 772.34 55.126 778.467 55.126 786.025C55.126 793.584 61.2532 799.711 68.8114 799.711Z" fill="#4183D7"/>
<path d="M351 714H257V806H351V714Z" fill="#FF6584"/>
<path d="M256.811 807.711C264.37 807.711 270.497 801.584 270.497 794.025C270.497 786.467 264.37 780.34 256.811 780.34C249.253 780.34 243.126 786.467 243.126 794.025C243.126 801.584 249.253 807.711 256.811 807.711Z" fill="#4183D7"/>
<path d="M262 281C263.657 281 265 279.657 265 278C265 276.343 263.657 275 262 275C260.343 275 259 276.343 259 278C259 279.657 260.343 281 262 281Z" fill="#4183D7"/>
<path d="M727.721 685.788C731.33 685.788 734.256 682.862 734.256 679.252C734.256 675.643 731.33 672.717 727.721 672.717C724.111 672.717 721.185 675.643 721.185 679.252C721.185 682.862 724.111 685.788 727.721 685.788Z" fill="#FF6584"/>
<path d="M759.739 787.725V713.313" stroke="#3F3D56" stroke-width="2" stroke-miterlimit="10"/>
<path d="M759.739 723.836C765.551 723.836 770.262 719.125 770.262 713.313C770.262 707.502 765.551 702.79 759.739 702.79C753.928 702.79 749.216 707.502 749.216 713.313C749.216 719.125 753.928 723.836 759.739 723.836Z" fill="#3F3D56"/>
<path d="M759.739 759.175C759.739 759.175 758.236 726.843 727.419 730.601L759.739 759.175Z" fill="#3F3D56"/>
<path d="M621.289 67.9044C621.289 75.2562 628.471 82.119 639.794 85.9876C637.533 97.3652 639.389 106.536 645.588 110.109C651.96 113.782 661.452 111.24 670.462 103.368C679.245 110.922 688.121 113.895 694.314 110.311C700.68 106.628 702.616 96.8353 700.293 85.1022C712.086 81.205 718.684 75.353 718.684 67.9044C718.684 60.7232 711.488 54.5108 700.317 50.6671C702.819 38.4492 700.699 29.5012 694.244 25.7803C688.02 22.193 679.04 25.3196 670.129 33.0713C660.858 24.8437 651.967 22.3318 645.518 26.063C639.3 29.6607 637.526 38.9983 639.794 50.5863C628.853 54.399 621.289 60.7523 621.289 67.9044Z" fill="white"/>
<path d="M697.952 54.484C697.031 54.1683 696.103 53.8759 695.167 53.607C695.322 52.977 695.466 52.3442 695.597 51.7089C697.705 41.4825 696.327 33.2442 691.621 30.5323C687.109 27.9313 679.729 30.6432 672.276 37.1258C671.542 37.766 670.824 38.4247 670.123 39.1012C669.653 38.6514 669.175 38.2103 668.69 37.7781C660.879 30.846 653.049 27.9252 648.348 30.6452C643.84 33.2534 642.505 40.9986 644.403 50.69C644.591 51.6498 644.805 52.6046 645.042 53.5535C643.934 53.868 642.864 54.2031 641.841 54.5597C632.683 57.7507 626.835 62.7522 626.835 67.9396C626.835 73.2976 633.113 78.6717 642.651 81.93C643.425 82.193 644.205 82.4367 644.99 82.6608C644.735 83.6831 644.508 84.7123 644.311 85.7473C642.502 95.2704 643.915 102.832 648.411 105.424C653.054 108.1 660.848 105.35 668.437 98.7189C669.037 98.1947 669.639 97.6388 670.242 97.0561C671.002 97.7884 671.781 98.4995 672.58 99.1884C679.932 105.511 687.192 108.064 691.684 105.465C696.323 102.781 697.831 94.6575 695.873 84.7743C695.724 84.0194 695.55 83.2485 695.354 82.4634C695.902 82.3019 696.439 82.1351 696.963 81.9614C706.879 78.6779 713.33 73.3692 713.33 67.9396C713.33 62.7334 707.293 57.6983 697.952 54.484Z" fill="#53C1DE"/>
<path d="M695.801 78.456C695.328 78.6124 694.843 78.7636 694.348 78.9101C693.253 75.4464 691.776 71.763 689.968 67.9579C691.693 64.2428 693.113 60.6069 694.178 57.1653C695.062 57.4217 695.921 57.6914 696.749 57.9764C704.753 60.7301 709.635 64.8022 709.635 67.9396C709.635 71.2817 704.362 75.6204 695.801 78.456H695.801ZM692.248 85.4917C693.114 89.8619 693.238 93.8131 692.664 96.9019C692.149 99.6773 691.113 101.528 689.832 102.269C687.106 103.846 681.277 101.796 674.99 96.3888C674.27 95.769 673.543 95.1071 672.815 94.4069C675.253 91.7424 677.688 88.6448 680.066 85.2052C684.247 84.8344 688.198 84.228 691.78 83.4004C691.956 84.1121 692.113 84.8096 692.248 85.4917ZM656.323 101.996C653.66 102.936 651.539 102.963 650.257 102.224C647.528 100.652 646.394 94.5798 647.941 86.436C648.125 85.4736 648.336 84.5164 648.573 83.5657C652.116 84.3489 656.037 84.9125 660.229 85.2522C662.622 88.618 665.128 91.7118 667.654 94.4211C667.117 94.9401 666.567 95.4458 666.006 95.9377C662.65 98.87 659.287 100.95 656.323 101.996H656.323ZM643.846 78.4353C639.629 76.9944 636.146 75.1219 633.758 73.0788C631.613 71.2422 630.53 69.4191 630.53 67.9396C630.53 64.7918 635.225 60.7764 643.057 58.0472C644.04 57.7062 645.033 57.394 646.034 57.111C647.117 60.6298 648.536 64.309 650.25 68.0295C648.514 71.8054 647.074 75.5432 645.982 79.1033C645.265 78.8982 644.553 78.6754 643.846 78.4353ZM648.029 49.9807C646.403 41.6769 647.483 35.4132 650.199 33.8415C653.093 32.1672 659.492 34.5547 666.236 40.5398C666.667 40.9224 667.1 41.323 667.534 41.7374C665.021 44.4344 662.538 47.5048 660.165 50.8511C656.097 51.228 652.203 51.8333 648.623 52.644C648.403 51.7612 648.205 50.8731 648.029 49.9803V49.9807ZM685.339 59.1889C684.493 57.7291 683.616 56.2876 682.709 54.8654C685.469 55.2136 688.113 55.6766 690.595 56.2432C689.85 58.6311 688.921 61.128 687.827 63.6876C687.028 62.1717 686.198 60.6718 685.339 59.1889ZM670.124 44.3766C671.828 46.2219 673.535 48.2827 675.214 50.5182C671.808 50.3574 668.397 50.3566 664.991 50.5159C666.671 48.301 668.393 46.2434 670.124 44.3766ZM654.811 59.2142C653.963 60.6852 653.149 62.1759 652.37 63.685C651.294 61.1341 650.373 58.6261 649.621 56.2042C652.089 55.6521 654.721 55.201 657.463 54.8586C656.545 56.2895 655.661 57.7418 654.811 59.2142ZM657.542 81.2842C654.709 80.9682 652.038 80.54 649.57 80.0032C650.334 77.5385 651.275 74.9765 652.374 72.3709C653.156 73.8811 653.974 75.3727 654.826 76.8444C655.696 78.3457 656.601 79.826 657.542 81.2842ZM670.226 91.7635C668.475 89.8745 666.728 87.7855 665.022 85.5384C666.678 85.6035 668.366 85.6364 670.083 85.6364C671.846 85.6364 673.589 85.597 675.304 85.5204C673.62 87.8084 671.919 89.9005 670.226 91.7635ZM687.862 72.2382C689.018 74.8721 689.993 77.4202 690.767 79.8433C688.259 80.4153 685.551 80.8759 682.698 81.218C683.613 79.7693 684.498 78.3026 685.354 76.8188C686.224 75.3107 687.06 73.7835 687.862 72.2382ZM682.153 74.9738C680.843 77.2488 679.459 79.4806 678.003 81.6657C675.437 81.8489 672.785 81.9434 670.083 81.9434C667.391 81.9434 664.773 81.8596 662.251 81.6963C660.758 79.5163 659.348 77.2806 658.024 74.9941C656.706 72.7197 655.475 70.3961 654.334 68.0283C655.472 65.6598 656.7 63.335 658.013 61.0587V61.0595C659.326 58.7827 660.725 56.5567 662.207 54.386C664.779 54.1917 667.417 54.0899 670.083 54.0899C672.761 54.0899 675.402 54.1924 677.974 54.3883C679.441 56.5556 680.831 58.7739 682.141 61.0392C683.459 63.3104 684.702 65.6239 685.87 67.9759C684.714 70.3519 683.475 72.686 682.153 74.9738H682.153ZM689.776 33.7317C692.672 35.4014 693.798 42.1341 691.979 50.9636C691.859 51.5388 691.73 52.1118 691.59 52.6823C688.001 51.8547 684.104 51.2387 680.025 50.8561C677.648 47.4734 675.185 44.3977 672.713 41.7355C673.361 41.1113 674.024 40.5032 674.702 39.9119C681.088 34.3572 687.056 32.1641 689.776 33.7317Z" fill="white"/>
<path d="M670.083 60.2197C674.348 60.2197 677.806 63.6762 677.806 67.9396C677.806 72.2033 674.348 75.6598 670.083 75.6598C665.817 75.6598 662.359 72.2033 662.359 67.9396C662.359 63.6762 665.817 60.2197 670.083 60.2197Z" fill="#53C1DE"/>
<path d="M835 560V491H976V629H835" fill="#2772E2"/>
<path d="M865.914 560.242V565.865H884.244V616.925H897.252V565.865H915.582V560.345C915.582 557.24 915.582 554.722 915.441 554.653C915.441 554.549 904.266 554.515 890.695 554.515L866.02 554.618V560.276L865.914 560.242ZM948.294 554.48C951.889 555.308 954.639 556.895 957.106 559.414C958.41 560.794 960.349 563.209 960.49 563.83C960.49 564.037 954.392 568.073 950.691 570.316C950.55 570.419 949.986 569.833 949.422 568.936C947.589 566.383 945.72 565.279 942.795 565.072C938.565 564.796 935.745 566.969 935.745 570.592C935.745 571.696 935.956 572.317 936.379 573.214C937.331 575.111 939.093 576.25 944.557 578.596C954.639 582.839 959.01 585.634 961.653 589.636C964.65 594.121 965.319 601.159 963.31 606.437C961.054 612.199 955.555 616.097 947.694 617.374C945.227 617.788 939.587 617.719 936.943 617.27C931.303 616.235 925.91 613.475 922.596 609.922C921.292 608.542 918.789 604.85 918.93 604.609L920.27 603.781L925.557 600.779L929.541 598.502L930.457 599.71C931.62 601.504 934.229 603.919 935.745 604.747C940.327 607.058 946.461 606.748 949.492 604.057C950.796 602.884 951.36 601.642 951.36 599.917C951.36 598.33 951.114 597.605 950.303 596.398C949.175 594.88 946.919 593.638 940.574 590.878C933.277 587.842 930.175 585.91 927.285 582.943C925.628 581.149 924.112 578.354 923.407 576.043C922.878 574.042 922.702 569.143 923.196 567.176C924.711 560.276 930.034 555.446 937.648 554.066C940.116 553.583 945.932 553.79 948.364 554.411L948.294 554.48Z" fill="white"/>
<g clip-path="url(#clip1)">
<path d="M154.12 381.561L155.282 385.961L163.268 383.852C164.904 383.419 167.398 381.487 166.616 378.13L166.167 376.429C165.416 373.584 162.628 372.526 160.43 373.107L156.45 374.158L155.91 372.116L163.798 370.033L162.63 365.608L155.059 367.608C153.105 368.124 150.916 370.418 151.706 373.408L152.11 374.94C152.9 377.93 155.893 378.778 157.871 378.255C163.373 376.828 156.553 378.604 161.632 377.262L162.197 379.401L154.12 381.561ZM111.052 391.792C111.052 391.792 115.229 390.298 113.778 384.804C112.327 379.31 107.015 380.167 107.015 380.167L97.6861 382.631L102.264 399.964L106.953 398.725L105.849 394.544L111.007 397.655L117.942 395.823L111.052 391.792ZM108.307 388.72L104.571 389.706L103.524 385.744L107.285 384.751C107.285 384.751 108.438 384.862 108.855 386.442C109.273 388.023 108.307 388.72 108.307 388.72ZM123.8 375.864L119.038 377.121C115.643 378.018 115.305 381.384 115.69 382.843L119.041 395.533L123.804 394.275L123.001 391.236L127.47 390.056L128.273 393.095L132.888 391.876L129.537 379.186C128.561 375.491 124.972 375.554 123.8 375.864ZM126.173 385.145L121.68 386.332L120.569 382.126C120.569 382.126 120.318 381.178 121.808 380.785L123.444 380.353C124.763 380.004 125.038 380.946 125.038 380.946L126.149 385.152L126.173 385.145ZM130.516 374.09L135.473 372.781L140.019 389.992L135.062 391.301L130.516 374.09ZM145.804 383.705L142.433 370.942L137.5 372.245L142.046 389.457L153.646 386.393L152.471 381.944L145.804 383.705Z" fill="#BC2D2D"/>
<path d="M72.8366 407.736L92.1293 402.641C92.1293 402.641 84.0178 386.865 94.4371 376.857C96.7587 374.866 103.962 367.814 120.529 374.361C120.873 373.88 121.211 373.479 121.211 373.479C121.211 373.479 105.179 364.216 91.412 369.361C84.4724 371.87 77.4311 380.621 74.5499 390.484C71.6687 400.347 72.8366 407.736 72.8366 407.736Z" fill="#BC2D2D"/>
<path d="M72.8366 407.736L92.1293 402.641C92.1293 402.641 84.0178 386.865 94.4371 376.857C96.7587 374.866 103.962 367.814 120.529 374.361C120.873 373.88 121.211 373.479 121.211 373.479C121.211 373.479 105.179 364.216 91.412 369.361C84.4724 371.87 77.4311 380.621 74.5499 390.484C71.6687 400.347 72.8366 407.736 72.8366 407.736Z" fill="#BC2D2D"/>
<path d="M72.8366 407.736L92.1293 402.641C92.1293 402.641 84.0178 386.865 94.4371 376.857C96.7587 374.866 103.962 367.814 120.529 374.361C120.873 373.88 121.211 373.479 121.211 373.479C121.211 373.479 105.179 364.216 91.412 369.361C84.448 371.876 77.4067 380.627 74.5255 390.49C71.6443 400.353 72.8366 407.736 72.8366 407.736ZM105.13 367.194L104.797 365.539C104.546 365.476 103.858 365.345 102.204 365.314L102.53 366.944C103.406 366.999 104.265 367.084 105.13 367.194Z" fill="#BC2D2D"/>
<path d="M104.172 372.96L104.478 374.517C105.291 374.329 106.122 374.213 106.973 374.171L106.673 372.638C105.798 372.687 104.966 372.802 104.172 372.96ZM93.1325 367.762L93.3767 367.697L92.4966 366.343C91.7396 366.543 90.9709 366.798 90.1907 367.109L91.0336 368.42C91.7225 368.16 92.4243 367.949 93.1325 367.762ZM96.6676 376.398L97.6723 377.927C98.2906 377.4 98.9218 376.921 99.5722 376.515L98.6112 375.053C97.845 375.515 97.2075 375.97 96.6676 376.398ZM83.8917 372.933L82.3497 371.546C81.8226 372.023 81.2776 372.531 80.7209 373.094L82.2938 374.499C82.826 373.943 83.3402 373.417 83.8917 372.933ZM91.7873 382.55L93.4219 383.991C93.6765 383.274 94.0172 382.586 94.4068 381.885L92.8713 380.522C92.4444 381.181 92.0793 381.875 91.7873 382.55ZM90.3137 391.314L92.7028 392.347C92.5501 391.373 92.4706 390.38 92.4644 389.367L90.3401 388.446C90.2602 389.429 90.278 390.387 90.3137 391.314ZM76.5674 382.591L74.4354 381.542C73.961 382.318 73.511 383.087 73.1098 383.843L75.414 384.95C75.7535 384.159 76.1418 383.354 76.5674 382.591ZM72.0623 395.406L68.9842 395.127C68.7963 396.294 68.6045 397.645 68.5336 398.366L71.6117 398.646C71.7109 397.735 71.9091 396.409 72.0623 395.406ZM91.5783 397.585C91.9674 398.861 92.3656 399.874 92.6803 400.571L95.887 400.842C95.4168 399.952 94.9145 398.94 94.4662 397.836L91.5783 397.585Z" fill="#BC2D2D"/>
</g>
<path d="M290.369 795.786C288.604 795.786 286.937 795.001 285.809 793.578L268.648 772.23C267.52 770.806 267.079 768.991 267.52 767.224L273.649 740.575C274.041 738.808 275.218 737.385 276.837 736.6L301.647 724.723C302.431 724.331 303.314 724.134 304.197 724.134C305.079 724.134 305.961 724.33 306.746 724.723L331.557 736.551C333.174 737.336 334.351 738.759 334.743 740.526L340.872 767.175C341.265 768.941 340.872 770.757 339.745 772.181L322.583 793.529C321.456 794.903 319.789 795.737 318.023 795.737L290.37 795.786H290.369Z" fill="#326DE6"/>
<path d="M304.147 725.361C304.834 725.361 305.52 725.508 306.157 725.803L330.968 737.63C332.243 738.268 333.223 739.446 333.517 740.82L339.646 767.469C339.99 768.892 339.646 770.365 338.715 771.493L321.554 792.842C320.671 793.97 319.298 794.608 317.876 794.608H290.369C288.947 794.608 287.574 793.97 286.692 792.842L269.53 771.493C268.648 770.365 268.304 768.892 268.599 767.469L274.728 740.82C275.071 739.397 276.003 738.219 277.277 737.63L302.088 725.754C302.726 725.509 303.461 725.362 304.147 725.362L304.147 725.361ZM304.147 723.054C303.117 723.054 302.088 723.3 301.107 723.741L276.297 735.618C274.335 736.551 272.963 738.268 272.472 740.379L266.343 767.027C265.853 769.138 266.343 771.297 267.716 773.015L284.877 794.363C286.201 796.032 288.212 796.964 290.32 796.964H317.827C319.935 796.964 321.946 796.032 323.27 794.363L340.431 773.015C341.804 771.346 342.294 769.138 341.804 767.027L335.675 740.379C335.185 738.268 333.812 736.551 331.85 735.618L307.138 723.741C306.206 723.3 305.177 723.054 304.147 723.054Z" fill="white"/>
<path d="M329.006 765.359C328.957 765.359 328.957 765.359 329.006 765.359H328.957C328.908 765.359 328.859 765.359 328.859 765.31C328.761 765.31 328.663 765.261 328.565 765.261C328.222 765.212 327.928 765.163 327.634 765.163C327.486 765.163 327.339 765.163 327.143 765.113H327.094C326.065 765.015 325.231 764.917 324.446 764.672C324.103 764.524 324.005 764.328 323.907 764.132C323.907 764.083 323.858 764.083 323.858 764.034L323.221 763.838C323.522 761.529 323.405 759.185 322.877 756.917C322.342 754.631 321.413 752.456 320.132 750.488L320.622 750.047V749.949C320.622 749.703 320.671 749.458 320.867 749.212C321.455 748.673 322.191 748.231 323.074 747.691C323.221 747.593 323.368 747.544 323.515 747.446C323.809 747.299 324.054 747.151 324.348 746.955C324.397 746.906 324.495 746.857 324.594 746.759C324.643 746.71 324.692 746.71 324.692 746.661C325.378 746.072 325.525 745.09 325.035 744.452C324.79 744.108 324.348 743.912 323.907 743.912C323.515 743.912 323.172 744.059 322.828 744.305L322.73 744.403C322.632 744.452 322.583 744.55 322.485 744.599C322.24 744.845 322.044 745.041 321.848 745.286C321.75 745.384 321.652 745.532 321.505 745.63C320.818 746.366 320.181 746.955 319.543 747.397C319.396 747.495 319.249 747.544 319.102 747.544C319.004 747.544 318.906 747.544 318.808 747.495H318.71L318.121 747.887C317.484 747.201 316.797 746.612 316.111 746.023C313.155 743.71 309.598 742.296 305.863 741.949L305.814 741.311L305.716 741.213C305.569 741.066 305.373 740.919 305.324 740.575C305.275 739.79 305.373 738.906 305.471 737.925V737.876C305.471 737.728 305.52 737.532 305.569 737.385C305.618 737.091 305.667 736.796 305.716 736.452V736.011C305.716 735.128 305.03 734.391 304.196 734.391C303.804 734.391 303.412 734.588 303.117 734.882C302.823 735.177 302.676 735.569 302.676 736.011V736.403C302.676 736.747 302.725 737.041 302.823 737.336C302.872 737.483 302.872 737.63 302.921 737.827V737.876C303.019 738.857 303.166 739.741 303.068 740.526C303.019 740.87 302.823 741.017 302.676 741.164L302.578 741.262L302.529 741.9C301.646 741.998 300.764 742.096 299.881 742.293C296.106 743.127 292.772 745.041 290.173 747.789L289.683 747.446H289.585C289.487 747.446 289.388 747.495 289.29 747.495C289.143 747.495 288.996 747.446 288.849 747.348C288.212 746.906 287.574 746.268 286.888 745.532C286.79 745.434 286.692 745.286 286.545 745.188C286.348 744.943 286.152 744.746 285.907 744.501C285.858 744.452 285.76 744.403 285.662 744.305C285.613 744.256 285.564 744.256 285.564 744.207C285.26 743.956 284.879 743.817 284.485 743.814C284.044 743.814 283.603 744.01 283.357 744.354C282.867 744.992 283.014 745.973 283.701 746.562C283.75 746.562 283.75 746.612 283.799 746.612C283.897 746.661 283.946 746.759 284.044 746.808C284.338 747.004 284.583 747.151 284.877 747.299C285.025 747.348 285.172 747.446 285.319 747.544C286.201 748.084 286.937 748.525 287.525 749.065C287.77 749.311 287.77 749.556 287.77 749.801V749.899L288.261 750.341C288.163 750.488 288.065 750.587 288.015 750.734C285.564 754.611 284.632 759.175 285.27 763.69L284.632 763.886C284.632 763.936 284.583 763.936 284.583 763.984C284.485 764.181 284.338 764.377 284.044 764.524C283.308 764.77 282.426 764.868 281.396 764.966H281.347C281.2 764.966 281.004 764.966 280.857 765.015C280.563 765.015 280.268 765.064 279.925 765.113C279.827 765.113 279.729 765.163 279.631 765.163C279.582 765.163 279.533 765.163 279.484 765.212C278.601 765.408 278.062 766.242 278.209 767.027C278.356 767.714 278.994 768.156 279.778 768.156C279.925 768.156 280.023 768.156 280.17 768.107C280.219 768.107 280.268 768.107 280.268 768.058C280.366 768.058 280.464 768.009 280.562 768.009C280.906 767.911 281.151 767.813 281.445 767.665C281.592 767.616 281.739 767.518 281.886 767.469H281.935C282.867 767.126 283.701 766.831 284.485 766.733H284.583C284.877 766.733 285.074 766.88 285.221 766.978C285.27 766.978 285.27 767.027 285.319 767.027L286.005 766.929C287.182 770.561 289.437 773.8 292.428 776.156C293.115 776.695 293.801 777.137 294.537 777.579L294.243 778.217C294.243 778.266 294.292 778.266 294.292 778.315C294.39 778.511 294.488 778.757 294.39 779.1C294.096 779.837 293.654 780.573 293.115 781.407V781.456C293.017 781.603 292.919 781.701 292.821 781.848C292.625 782.094 292.477 782.339 292.281 782.634C292.232 782.683 292.183 782.781 292.134 782.879C292.134 782.928 292.085 782.977 292.085 782.977C291.693 783.812 291.987 784.744 292.723 785.088C292.919 785.186 293.115 785.235 293.311 785.235C293.899 785.235 294.488 784.842 294.782 784.302C294.782 784.253 294.831 784.204 294.831 784.204C294.88 784.106 294.929 784.008 294.978 783.959C295.125 783.615 295.174 783.37 295.272 783.075L295.419 782.634C295.763 781.652 296.008 780.867 296.449 780.18C296.645 779.886 296.89 779.837 297.086 779.738C297.135 779.738 297.135 779.738 297.184 779.689L297.528 779.051C299.685 779.886 302.039 780.327 304.392 780.327C305.814 780.327 307.285 780.18 308.658 779.837C309.522 779.643 310.374 779.397 311.208 779.1L311.502 779.64C311.551 779.64 311.551 779.64 311.6 779.689C311.845 779.738 312.041 779.837 312.237 780.131C312.63 780.818 312.924 781.652 313.267 782.585V782.634L313.414 783.075C313.512 783.37 313.561 783.664 313.708 783.959C313.757 784.057 313.806 784.106 313.855 784.204C313.855 784.253 313.905 784.302 313.905 784.302C314.199 784.891 314.787 785.235 315.375 785.235C315.572 785.235 315.768 785.186 315.964 785.088C316.307 784.892 316.601 784.597 316.699 784.204C316.797 783.812 316.797 783.37 316.601 782.977C316.601 782.928 316.552 782.928 316.552 782.879C316.503 782.781 316.454 782.683 316.405 782.634C316.258 782.339 316.062 782.094 315.866 781.848C315.768 781.701 315.67 781.603 315.572 781.456V781.407C315.032 780.573 314.542 779.837 314.297 779.1C314.199 778.757 314.297 778.561 314.346 778.315C314.346 778.266 314.395 778.266 314.395 778.217L314.15 777.628C316.748 776.107 318.955 773.947 320.622 771.297C321.505 769.923 322.191 768.401 322.681 766.88L323.27 766.978C323.319 766.978 323.319 766.929 323.368 766.929C323.564 766.831 323.711 766.684 324.005 766.684H324.103C324.888 766.782 325.721 767.076 326.653 767.42H326.702C326.849 767.469 326.996 767.567 327.143 767.616C327.437 767.764 327.683 767.862 328.026 767.96C328.124 767.96 328.222 768.009 328.32 768.009C328.369 768.009 328.418 768.009 328.467 768.058C328.614 768.107 328.712 768.107 328.859 768.107C329.595 768.107 330.232 767.616 330.428 766.978C330.428 766.39 329.889 765.604 329.006 765.359V765.359ZM306.304 762.954L304.147 763.985L301.99 762.954L301.45 760.647L302.921 758.783H305.324L306.795 760.647L306.305 762.954H306.304ZM319.102 757.85C319.482 759.473 319.598 761.147 319.445 762.807L311.943 760.647C311.257 760.451 310.865 759.764 311.012 759.077C311.061 758.881 311.159 758.684 311.306 758.537L317.239 753.188C318.072 754.562 318.71 756.132 319.102 757.85V757.85ZM314.885 750.243L308.462 754.807C307.923 755.151 307.187 755.053 306.746 754.513C306.599 754.366 306.55 754.169 306.501 753.973L306.059 745.973C309.399 746.358 312.509 747.863 314.885 750.243ZM300.666 746.218C301.205 746.12 301.695 746.022 302.235 745.924L301.794 753.776C301.745 754.463 301.205 755.052 300.47 755.052C300.274 755.052 300.028 755.003 299.881 754.905L293.36 750.243C295.37 748.231 297.871 746.857 300.666 746.219V746.218ZM291.006 753.187L296.841 758.389C297.381 758.831 297.43 759.665 296.988 760.205C296.841 760.401 296.645 760.549 296.4 760.598L288.8 762.807C288.506 759.469 289.241 756.083 291.006 753.187ZM289.682 766.487L297.479 765.162C298.116 765.113 298.705 765.555 298.852 766.193C298.901 766.487 298.901 766.733 298.803 766.978L295.812 774.192C293.066 772.425 290.859 769.726 289.683 766.487H289.682ZM307.579 776.254C306.452 776.499 305.324 776.646 304.147 776.646C302.431 776.646 300.764 776.352 299.195 775.861L303.068 768.843C303.461 768.401 304.098 768.205 304.637 768.5C304.866 768.64 305.066 768.823 305.226 769.039L309.001 775.861C308.56 776.008 308.07 776.106 307.579 776.254H307.579ZM317.141 769.432C315.915 771.395 314.297 772.965 312.434 774.192L309.345 766.781C309.197 766.193 309.443 765.555 310.031 765.26C310.227 765.162 310.472 765.113 310.717 765.113L318.563 766.438C318.268 767.518 317.778 768.5 317.141 769.432Z" fill="white"/>
<path d="M409.5 408C429.658 408 446 392.554 446 373.5C446 354.446 429.658 339 409.5 339C389.342 339 373 354.446 373 373.5C373 392.554 389.342 408 409.5 408Z" fill="#AEC7E8"/>
<g clip-path="url(#clip2)">
<path fill-rule="evenodd" clip-rule="evenodd" d="M413.608 352.183L424.698 358.585C425.018 358.246 425.385 357.956 425.789 357.722C428.089 356.4 431.022 357.185 432.358 359.485C433.68 361.784 432.895 364.718 430.595 366.053C430.195 366.284 429.764 366.456 429.314 366.563V379.373C429.759 379.481 430.185 379.652 430.582 379.88C432.895 381.215 433.68 384.149 432.344 386.449C431.022 388.748 428.075 389.533 425.775 388.211C425.329 387.956 424.928 387.63 424.586 387.246L413.564 393.609C413.725 394.098 413.807 394.61 413.807 395.124C413.807 397.768 411.658 399.931 409 399.931C406.342 399.931 404.193 397.782 404.193 395.124C404.193 394.652 404.261 394.196 404.388 393.765L393.301 387.364C392.984 387.696 392.622 387.981 392.225 388.211C389.911 389.533 386.978 388.748 385.656 386.449C384.333 384.149 385.119 381.215 387.418 379.88C387.815 379.651 388.241 379.481 388.686 379.373V366.563C388.236 366.456 387.805 366.284 387.405 366.053C385.105 364.732 384.32 361.784 385.642 359.485C386.964 357.185 389.911 356.4 392.211 357.722C392.612 357.954 392.978 358.243 393.297 358.58L404.39 352.176C404.259 351.732 404.193 351.271 404.193 350.809C404.193 348.151 406.342 346.003 409 346.003C411.658 346.003 413.807 348.151 413.807 350.809C413.807 351.286 413.737 351.747 413.608 352.183ZM412.453 354.155L423.569 360.573C423.392 361.192 423.341 361.839 423.42 362.478C423.498 363.117 423.704 363.733 424.026 364.291C424.703 365.468 425.805 366.248 427.028 366.552V379.378C426.966 379.393 426.904 379.41 426.842 379.427L412.323 354.284C412.367 354.242 412.41 354.199 412.453 354.156V354.155ZM405.68 354.287L391.161 379.43C391.098 379.412 391.035 379.395 390.972 379.379V366.552C392.195 366.248 393.297 365.468 393.974 364.291C394.296 363.732 394.503 363.115 394.581 362.475C394.659 361.835 394.607 361.185 394.429 360.566L405.542 354.15C405.587 354.196 405.633 354.242 405.68 354.286V354.287ZM410.343 355.426L424.858 380.563C424.526 380.88 424.241 381.244 424.012 381.642C423.784 382.038 423.613 382.465 423.505 382.909H394.495C394.387 382.465 394.216 382.038 393.988 381.642C393.759 381.247 393.474 380.885 393.143 380.569L407.661 355.427C408.096 355.552 408.547 355.615 409 355.615C409.466 355.615 409.917 355.549 410.343 355.426ZM412.555 391.887L423.599 385.511C423.566 385.407 423.536 385.301 423.51 385.195H394.489C394.473 385.258 394.457 385.32 394.439 385.381L405.537 391.788C405.985 391.322 406.523 390.952 407.118 390.699C407.713 390.447 408.353 390.317 409 390.318C409.669 390.317 410.331 390.456 410.943 390.726C411.556 390.996 412.104 391.391 412.555 391.887Z" fill="#E535AB"/>
</g>
</g>
<defs>
<clipPath id="clip0">
<rect width="1115.91" height="832.564" fill="white"/>
</clipPath>
<clipPath id="clip1">
<rect width="100" height="35" fill="white" transform="translate(62.1889 374.348) rotate(-14.795)"/>
</clipPath>
<clipPath id="clip2">
<rect width="48" height="54" fill="white" transform="translate(385 346)"/>
</clipPath>
</defs>
</svg>
