<?xml version="1.0" encoding="utf-8"?>
<!-- Generator: Adobe Illustrator 21.0.0, SVG Export Plug-In . SVG Version: 6.00 Build 0)  -->
<svg version="1.1" id="Ebene_1" xmlns="http://www.w3.org/2000/svg" xmlns:xlink="http://www.w3.org/1999/xlink" x="0px" y="0px"
	 viewBox="0 0 113.1 31.1" style="enable-background:new 0 0 113.1 31.1;" xml:space="preserve">
<style type="text/css">
	.st0{fill:#1D1D1B;}
	.st1{fill:url(#SVGID_1_);}
	.st2{fill:url(#SVGID_2_);}
	.st3{fill:#2D91C8;}
	.st4{fill:url(#SVGID_3_);}
	.st5{fill:url(#SVGID_4_);}
	.st6{fill:url(#SVGID_5_);}
</style>
<g id="Ebene_1_1_">
	<g>
		<g>
			<g>
				<path class="st0" d="M39.8,18.1c0,1.1-0.4,2-1.3,2.6c-0.9,0.6-2,1-3.5,1c-2.1,0-3.7-0.6-4.9-1.7l1.2-1.2
					c0.9,0.9,2.1,1.4,3.7,1.4c2.1,0,3.2-0.7,3.2-2.1c0-1-0.7-1.6-2-1.7l-2-0.2c-2.4-0.2-3.5-1.3-3.5-3.2c0-1.1,0.4-1.9,1.2-2.5
					c0.8-0.6,1.9-0.9,3.1-0.9c1.8,0,3.2,0.4,4.3,1.3L38.1,12c-0.8-0.6-1.9-0.9-3.2-0.9c-1.8,0-2.6,0.7-2.6,2c0,1,0.7,1.6,2.1,1.7
					l1.9,0.2C38.6,15.1,39.8,16.2,39.8,18.1z"/>
				<path class="st0" d="M46.5,21.6h-1.2c-1,0-1.7-0.3-2.3-0.9c-0.5-0.6-0.8-1.3-0.8-2.2v-7.3h-1.5V9.8h1.5V6.1H44v3.7h2.5v1.3H44
					v7.2c0,1.2,0.5,1.7,1.6,1.7h0.9C46.5,20.1,46.5,21.6,46.5,21.6z"/>
				<path class="st0" d="M57.8,15.7c0,2.2-0.5,3.7-1.4,4.7c-0.9,0.9-2,1.3-3.4,1.3c-1.4,0-2.5-0.4-3.4-1.3c-1-1-1.4-2.6-1.4-4.7
					s0.5-3.7,1.4-4.7c0.9-0.9,2-1.3,3.4-1.3c1.4,0,2.5,0.4,3.4,1.3C57.3,11.9,57.8,13.5,57.8,15.7z M56,15.7c0-1.8-0.3-3-0.9-3.7
					c-0.6-0.6-1.3-0.9-2.2-0.9c-0.8,0-1.6,0.3-2.1,0.9c-0.6,0.6-1,1.9-1,3.7s0.3,3,1,3.7c0.6,0.6,1.3,0.9,2.1,0.9
					c0.9,0,1.6-0.3,2.2-0.9C55.7,18.7,56,17.5,56,15.7z"/>
				<path class="st0" d="M68.2,10.7L66.9,12c-0.6-0.6-1.3-0.9-2-0.9c-0.8,0-1.5,0.3-2.1,0.9c-0.5,0.6-0.8,1.4-0.8,2.3v7.3h-1.7V9.8
					H62v1.4c0.7-1.1,1.8-1.6,3.3-1.6C66.5,9.6,67.4,10,68.2,10.7z"/>
				<path class="st0" d="M78.3,16.1h-8c0,1.3,0.3,2.3,0.9,3c0.6,0.7,1.5,1.1,2.6,1.1c1.2,0,2.2-0.4,3.1-1.3l1.2,1
					c-0.6,0.6-1.3,1.1-1.8,1.4c-0.7,0.3-1.5,0.5-2.5,0.5c-1.6,0-2.9-0.5-3.8-1.5c-1-1-1.4-2.6-1.4-4.6c0-1.9,0.4-3.4,1.3-4.5
					c0.9-1.1,2.1-1.6,3.6-1.6c1.5,0,2.7,0.5,3.6,1.5s1.3,2.4,1.3,4.2L78.3,16.1L78.3,16.1z M76.5,14.8c-0.1-0.8-0.2-1.5-0.4-2
					c-0.5-1.2-1.4-1.8-2.8-1.8c-1.3,0-2.3,0.6-2.8,1.8c-0.2,0.5-0.3,1.1-0.4,2H76.5z"/>
				<path class="st0" d="M89.7,21.6h-9.5v-1.5l6.8-8.6c0.6-0.8,1-1.7,1-2.5c0-0.9-0.3-1.7-0.8-2.2c-0.5-0.6-1.3-0.8-2.2-0.8
					c-0.9,0-1.6,0.2-2.1,0.7C82.3,7.1,82,7.9,82,9h-1.7c0-1.4,0.4-2.5,1.3-3.3c0.9-0.9,2-1.3,3.4-1.3c1.4,0,2.6,0.4,3.4,1.3
					c0.9,0.8,1.3,2,1.3,3.4c0,1.1-0.5,2.3-1.4,3.5l-6,7.7h7.4C89.7,20,89.7,21.6,89.7,21.6z"/>
				<path class="st0" d="M101.5,15.7c0,2.4-0.5,4.1-1.4,5c-0.7,0.7-1.7,1-2.9,1c-1.4,0-2.5-0.5-3.3-1.6v1.4h-1.7V4.5h1.7v6.7
					c0.8-1,1.9-1.5,3.3-1.5c1.2,0,2.2,0.3,2.9,1C101,11.6,101.5,13.3,101.5,15.7z M99.8,15.7c0-1.4-0.2-2.4-0.5-3.1
					c-0.5-0.9-1.3-1.4-2.5-1.4c-1.2,0-2,0.5-2.5,1.4c-0.4,0.7-0.5,1.7-0.5,3.1c0,1.4,0.2,2.4,0.5,3.1c0.5,0.9,1.3,1.4,2.5,1.4
					c1.2,0,2-0.5,2.5-1.4C99.6,18.1,99.8,17.1,99.8,15.7z"/>
				<path class="st0" d="M113.1,16.1h-8c0,1.3,0.3,2.3,0.9,3c0.6,0.7,1.5,1.1,2.6,1.1c1.2,0,2.2-0.4,3.1-1.3l1.2,1
					c-0.6,0.6-1.3,1.1-1.8,1.4c-0.7,0.3-1.5,0.5-2.5,0.5c-1.6,0-2.9-0.5-3.8-1.5c-1-1-1.4-2.6-1.4-4.6c0-1.9,0.4-3.4,1.3-4.5
					c0.9-1.1,2.1-1.6,3.6-1.6c1.5,0,2.7,0.5,3.6,1.5c0.9,1,1.3,2.4,1.3,4.2L113.1,16.1L113.1,16.1z M111.4,14.8
					c-0.1-0.8-0.2-1.5-0.4-2c-0.5-1.2-1.4-1.8-2.8-1.8c-1.3,0-2.3,0.6-2.8,1.8c-0.2,0.5-0.3,1.1-0.4,2H111.4z"/>
			</g>
		</g>
		<g>
			
				<linearGradient id="SVGID_1_" gradientUnits="userSpaceOnUse" x1="13991.4844" y1="-10345.6465" x2="13991.4844" y2="-10303.1465" gradientTransform="matrix(0.1033 0 0 -0.1033 -1437.6327 -1052.8975)">
				<stop  offset="0" style="stop-color:#2D91C8"/>
				<stop  offset="1" style="stop-color:#0F506E"/>
			</linearGradient>
			<path class="st1" d="M8.5,15.9H7c0,0-0.1,0-0.1-0.1v-4.3c0,0,0-0.1,0.1-0.1h1.4c0,0,0.1,0,0.1,0.1L8.5,15.9
				C8.5,15.8,8.5,15.9,8.5,15.9z"/>
			
				<linearGradient id="SVGID_2_" gradientUnits="userSpaceOnUse" x1="14015.1846" y1="-10345.6465" x2="14015.1846" y2="-10291.9463" gradientTransform="matrix(0.1033 0 0 -0.1033 -1437.6327 -1052.8975)">
				<stop  offset="0" style="stop-color:#2D91C8"/>
				<stop  offset="1" style="stop-color:#0F506E"/>
			</linearGradient>
			<path class="st2" d="M10.9,15.9H9.5c0,0-0.1,0-0.1-0.1v-5.4c0,0,0-0.1,0.1-0.1h1.4c0,0,0.1,0,0.1,0.1L10.9,15.9
				C11,15.8,11,15.9,10.9,15.9z"/>
			<path class="st3" d="M13.4,15.9h-1.4c0,0-0.1,0-0.1-0.1V7.7c0,0,0-0.1,0.1-0.1h1.4c0,0,0.1,0,0.1,0.1L13.4,15.9
				C13.4,15.8,13.4,15.9,13.4,15.9z"/>
			
				<linearGradient id="SVGID_3_" gradientUnits="userSpaceOnUse" x1="14062.4844" y1="-10345.6465" x2="14062.4844" y2="-10278.3467" gradientTransform="matrix(0.1033 0 0 -0.1033 -1437.6327 -1052.8975)">
				<stop  offset="0" style="stop-color:#2D91C8"/>
				<stop  offset="1" style="stop-color:#0F506E"/>
			</linearGradient>
			<path class="st4" d="M15.8,15.9h-1.4c0,0-0.1,0-0.1-0.1V9c0,0,0-0.1,0.1-0.1h1.4c0,0,0.1,0,0.1,0.1L15.8,15.9
				C15.9,15.8,15.8,15.9,15.8,15.9z"/>
		</g>
		<g>
			
				<linearGradient id="SVGID_4_" gradientUnits="userSpaceOnUse" x1="14026.9629" y1="-10441.4092" x2="14026.9629" y2="-10221.8525" gradientTransform="matrix(0.1033 0 0 -0.1033 -1437.6327 -1052.8975)">
				<stop  offset="0" style="stop-color:#2D91C8"/>
				<stop  offset="1" style="stop-color:#0F506E"/>
			</linearGradient>
			<path class="st5" d="M15.2,21.6c-0.2-0.1-0.5-0.1-0.6,0.1l-1.8,2.6c-0.1,0.2-0.6,0.9-1,1.4c-0.2,0.2-0.5,0.2-0.7,0
				c-0.3-0.5-0.8-1.2-1-1.4l-1.8-2.6c-0.1-0.2-0.4-0.2-0.6-0.1l-1.8,1.3c-0.2,0.1-0.2,0.4-0.1,0.6L9.6,29c0.2,0.3,0.8,1.1,1.3,1.8
				c0.3,0.4,0.8,0.4,1.1,0c0.5-0.7,1.1-1.5,1.3-1.8l3.9-5.5c0.1-0.2,0.1-0.5-0.1-0.6L15.2,21.6z"/>
			
				<linearGradient id="SVGID_5_" gradientUnits="userSpaceOnUse" x1="14026.9844" y1="-10441.4092" x2="14026.9844" y2="-10221.8525" gradientTransform="matrix(0.1033 0 0 -0.1033 -1437.6327 -1052.8975)">
				<stop  offset="0" style="stop-color:#2D91C8"/>
				<stop  offset="1" style="stop-color:#0F506E"/>
			</linearGradient>
			<path class="st6" d="M11.4,0C4.1,0,0,6,0,11.3c0,4.1,1.8,6.6,3.2,8.5l1.2,1.7c0.1,0.2,0.4,0.2,0.6,0.1l1.8-1.3
				c0.2-0.1,0.2-0.4,0.1-0.6l-1.5-2.2c-1-1.4-2.3-3.2-2.3-6.2c0-3.9,3-8.3,8.4-8.3s8.4,4.4,8.4,8.3c0,3-1.4,4.9-2.3,6.2L16,19.7
				c-0.1,0.2-0.1,0.5,0.1,0.6l1.8,1.3c0.2,0.1,0.5,0.1,0.6-0.1l1.2-1.7c1.3-1.9,3.2-4.4,3.2-8.5C22.9,6,18.7,0,11.4,0z"/>
		</g>
	</g>
</g>
<g id="Ebene_2">
</g>
<g id="Ebene_3">
</g>
</svg>
